<mxfile host="app.diagrams.net" modified="2023-10-05T13:34:31.054Z" agent="Mozilla/5.0 (Macintosh; Intel Mac OS X 10_15_7) AppleWebKit/605.1.15 (KHTML, like Gecko) Version/15.6.1 Safari/605.1.15" version="22.0.2" etag="qFV7neILiA831RiBNzaM" type="github">
  <diagram name="Page-1" id="knjLFbp_dTezc9wdmtCd">
    <mxGraphModel>
      <root>
        <mxCell id="0" />
        <mxCell id="1" parent="0" />
      </root>
    </mxGraphModel>
  </diagram>
</mxfile>
